<svg width="41" height="40" viewBox="0 0 41 40" fill="none" xmlns="http://www.w3.org/2000/svg">
<path d="M1 20C1 9.23045 9.73045 0.5 20.5 0.5C31.2696 0.5 40 9.23045 40 20C40 30.7696 31.2696 39.5 20.5 39.5C9.73045 39.5 1 30.7696 1 20Z" stroke="#373937"/>
<mask id="mask0_1409_2276" style="mask-type:alpha" maskUnits="userSpaceOnUse" x="8" y="8" width="25" height="24">
<rect x="8.5" y="8" width="24" height="24" fill="#D9D9D9"/>
</mask>
<g mask="url(#mask0_1409_2276)">
<path d="M14.325 25L16.225 26.9C16.425 27.1 16.5209 27.3333 16.5125 27.6C16.5042 27.8667 16.4 28.1 16.2 28.3C16 28.4833 15.7667 28.5792 15.5 28.5875C15.2334 28.5958 15 28.5 14.8 28.3L11.2 24.7C11.1 24.6 11.0292 24.4917 10.9875 24.375C10.9459 24.2583 10.925 24.1333 10.925 24C10.925 23.8667 10.9459 23.7417 10.9875 23.625C11.0292 23.5083 11.1 23.4 11.2 23.3L14.8 19.7C14.9834 19.5167 15.2125 19.425 15.4875 19.425C15.7625 19.425 16 19.5167 16.2 19.7C16.4 19.9 16.5 20.1375 16.5 20.4125C16.5 20.6875 16.4 20.925 16.2 21.125L14.325 23H28.5C28.7834 23 29.0209 23.0958 29.2125 23.2875C29.4042 23.4792 29.5 23.7167 29.5 24C29.5 24.2833 29.4042 24.5208 29.2125 24.7125C29.0209 24.9042 28.7834 25 28.5 25H14.325ZM26.675 17H12.5C12.2167 17 11.9792 16.9042 11.7875 16.7125C11.5959 16.5208 11.5 16.2833 11.5 16C11.5 15.7167 11.5959 15.4792 11.7875 15.2875C11.9792 15.0958 12.2167 15 12.5 15H26.675L24.775 13.1C24.575 12.9 24.4792 12.6667 24.4875 12.4C24.4959 12.1333 24.6 11.9 24.8 11.7C25 11.5167 25.2334 11.4208 25.5 11.4125C25.7667 11.4042 26 11.5 26.2 11.7L29.8 15.3C29.9 15.4 29.9709 15.5083 30.0125 15.625C30.0542 15.7417 30.075 15.8667 30.075 16C30.075 16.1333 30.0542 16.2583 30.0125 16.375C29.9709 16.4917 29.9 16.6 29.8 16.7L26.2 20.3C26.0167 20.4833 25.7875 20.575 25.5125 20.575C25.2375 20.575 25 20.4833 24.8 20.3C24.6 20.1 24.5 19.8625 24.5 19.5875C24.5 19.3125 24.6 19.075 24.8 18.875L26.675 17Z" fill="#1D251D"/>
</g>
</svg>
