<svg width="246" height="80" viewBox="0 0 246 80" fill="none" xmlns="http://www.w3.org/2000/svg">
<path d="M36.8446 75C33.3874 75 30.0131 74.3065 26.8157 72.94C20.6146 70.289 15.8292 65.4095 13.3411 59.2005L13.3401 59.198C10.8515 52.9865 10.9599 46.189 13.6453 40.058C15.1558 36.609 17.4651 33.5025 20.3349 31.056C20.1765 27.314 20.8878 23.5235 22.3984 20.074C26.4096 10.917 35.5248 5 45.6211 5C49.0758 5 52.4481 5.6925 55.6435 7.0575C55.6455 7.0585 55.65 7.06 55.65 7.06C61.8511 9.711 66.636 14.5905 69.1246 20.7995C71.6142 27.012 71.5063 33.81 68.8204 39.942C67.3099 43.391 65.0001 46.4975 62.1308 48.944C62.2897 52.686 61.5784 56.4765 60.0673 59.926C56.0556 69.083 46.9404 75 36.8446 75ZM21.9139 38.74C20.9947 39.9305 20.2225 41.235 19.6116 42.6305C17.6375 47.138 17.549 52.147 19.3638 56.7345C21.203 61.3845 24.7636 65.0345 29.3902 67.0125C31.7689 68.0295 34.2775 68.545 36.8466 68.545C44.3499 68.545 51.1224 64.153 54.101 57.3555L54.102 57.3535C54.7089 55.968 55.141 54.529 55.3913 53.0625C52.2972 54.3425 48.934 55.015 45.5962 55.015C42.14 55.015 38.7667 54.322 35.5703 52.9555C31.8588 51.3685 28.555 48.9025 26.0169 45.824C24.2891 43.7305 22.8834 41.3 21.9139 38.74ZM27.2692 34.0395C28.5745 39.829 32.6121 44.664 38.1433 47.029C40.5215 48.046 43.0301 48.5615 45.5982 48.5615C48.9809 48.5615 52.2898 47.6635 55.1965 45.9615C53.8907 40.172 49.8531 35.337 44.3224 32.972C41.9442 31.955 39.4361 31.4395 36.8675 31.4395C33.4848 31.439 30.1759 32.337 27.2692 34.0395ZM36.8705 24.9845C40.3267 24.9845 43.7 25.6775 46.8969 27.044C50.6084 28.6305 53.9117 31.0965 56.4503 34.1755C58.1766 36.2695 59.5823 38.6995 60.5523 41.26C61.4715 40.069 62.2437 38.7645 62.8546 37.3695C64.8447 32.8255 64.9251 27.7875 63.0804 23.1845C61.2342 18.5775 57.6816 14.9565 53.0765 12.9875C50.6978 11.9705 48.1892 11.455 45.6201 11.455C38.1158 11.455 31.3428 15.848 28.3652 22.6465C27.7583 24.032 27.3262 25.4705 27.0759 26.9375C30.1699 25.6575 33.5327 24.9845 36.8705 24.9845Z" fill="#6EE17F"/>
<path d="M88.2601 20H88.5167C89.6984 20 90.678 20.5831 91.456 21.7497C91.7203 22.2785 91.8525 22.784 91.8525 23.2656V56.6234C91.8525 58.0233 91.1295 59.0574 89.683 59.7257C89.3564 59.8352 89.1309 59.8889 89.0065 59.8889H87.7703C87.2106 59.8889 86.5416 59.5318 85.764 58.8157C85.2041 58.1629 84.9243 57.4011 84.9243 56.5298V23.3826C84.9243 21.9209 85.6707 20.8554 87.1635 20.1867C87.5679 20.0625 87.9336 20 88.2601 20Z" fill="#C0C8C4"/>
<path d="M108.074 26.9294H108.243C108.789 26.9294 109.335 26.7767 109.881 26.4715C110.989 25.7331 111.544 24.7846 111.544 23.6284V23.5075C111.544 22.9452 111.391 22.3994 111.086 21.8692C110.347 20.7446 109.367 20.1826 108.146 20.1826C107.713 20.1826 107.231 20.2952 106.7 20.5199C105.415 21.2588 104.772 22.2713 104.772 23.5559C104.772 23.9256 104.861 24.3673 105.038 24.8815C105.761 26.2468 106.773 26.9294 108.074 26.9294Z" fill="#C0C8C4"/>
<path d="M133.96 25.972C134.769 25.132 135.174 24.2768 135.174 23.406V23.2658C135.174 22.7527 135.041 22.2551 134.777 21.7728C134.062 20.5911 133.082 20 131.838 20C131.542 20 131.146 20.0697 130.648 20.2098C130.01 20.4278 129.233 21.1663 128.315 22.4259C120.322 32.6744 112.033 43.3036 103.449 54.3137C102.826 54.9987 102.516 55.7836 102.516 56.6699C102.516 56.6714 102.516 56.673 102.516 56.6745C102.516 56.6761 102.516 56.6776 102.516 56.6786C102.516 56.6971 102.518 56.7154 102.518 56.7339C102.52 56.8077 102.523 56.8815 102.53 56.9543C102.631 58.1599 103.386 59.1773 104.44 59.6534C104.676 59.7745 104.901 59.8493 105.116 59.8748C105.331 59.9195 105.553 59.9432 105.78 59.9432C105.977 59.9432 106.17 59.9226 106.357 59.8889H106.411C106.955 59.8889 107.593 59.5475 108.324 58.8631C114.778 50.6054 118.277 46.1108 118.821 45.3798L122.763 50.3951C126.993 55.8381 129.256 58.7155 129.552 59.0263C129.624 59.087 129.694 59.1423 129.763 59.1965C129.902 59.313 130.052 59.4164 130.208 59.5089C130.547 59.7198 130.852 59.8439 131.123 59.8776C131.366 59.935 131.619 59.9689 131.88 59.9689C133.192 59.9689 134.322 59.1991 134.852 58.0886C134.966 57.8616 135.048 57.6202 135.099 57.3664C135.104 57.3479 135.107 57.3291 135.111 57.3111C135.127 57.2258 135.141 57.1399 135.15 57.0509C135.161 56.955 135.167 56.8571 135.169 56.7591C135.17 56.7365 135.174 56.7159 135.174 56.6933V56.5532C135.174 56.0089 135.026 55.48 134.73 54.9668C134.435 54.5626 130.547 49.5705 123.067 39.9908V39.9674L133.96 25.972Z" fill="#C0C8C4"/>
<path d="M149.3 59.9859C150.257 59.9859 151.123 59.5976 151.749 58.9705C152.421 58.3563 152.765 57.5765 152.765 56.6233V23.2656C152.765 22.784 152.632 22.2783 152.368 21.7496C151.59 20.5831 150.61 20 149.429 20H149.172C148.845 20 148.48 20.0622 148.076 20.1867C146.583 20.8554 145.836 21.9209 145.836 23.3826V56.5303C145.836 57.4016 146.116 58.1634 146.676 58.8162C146.734 58.87 146.79 58.9173 146.846 58.9664C147.164 59.2847 147.542 59.5418 147.963 59.7182C148.065 59.7629 148.164 59.7994 148.259 59.8267C148.588 59.9295 148.937 59.9859 149.3 59.9859Z" fill="#C0C8C4"/>
<path d="M195.409 39.8514C195.331 39.6025 192.33 33.5917 186.405 21.8193C185.612 20.6063 184.609 20 183.396 20H183.116C182.058 20 181.118 20.5052 180.293 21.5159C180.153 21.7183 179.182 23.6386 177.378 27.2778C169.135 43.6998 165.014 51.9344 165.014 51.9812C164.573 52.7911 164.23 53.4863 163.973 54.0797C163.644 54.6102 163.448 55.2298 163.432 55.8957C163.432 55.9119 163.428 55.9315 163.428 55.9469C163.428 55.9528 163.429 55.959 163.429 55.9649C163.429 55.9708 163.428 55.9759 163.428 55.9818C163.428 56.8843 163.761 57.7073 164.309 58.3406C164.384 58.4306 164.463 58.5193 164.548 58.6062C164.59 58.6414 164.632 58.6725 164.674 58.7067C164.86 58.8684 165.063 59.0129 165.281 59.1346C165.691 59.3822 166.064 59.5148 166.4 59.5333C166.608 59.5706 166.821 59.593 167.039 59.593C167.245 59.593 167.444 59.5719 167.64 59.5387H167.72C167.813 59.5387 167.922 59.5236 168.047 59.4919C168.949 59.1973 169.633 58.6995 170.1 57.9994L182.043 34.369C182.354 33.4981 182.758 33.0626 183.256 33.0626C183.52 33.0626 183.761 33.1716 183.979 33.3894C187.199 39.8434 188.855 43.1404 188.948 43.28C189.772 44.3843 190.791 44.936 192.004 44.936C192.564 44.936 193.131 44.7964 193.707 44.5162C195.06 43.7232 195.736 42.6269 195.736 41.2275C195.736 41.0727 195.627 40.6132 195.409 39.8514Z" fill="#C0C8C4"/>
<path d="M199.468 59.5932C201.463 59.5932 203.08 57.9763 203.08 55.9818C203.08 53.9872 201.463 52.3704 199.468 52.3704C197.474 52.3704 195.857 53.9872 195.857 55.9818C195.857 57.9763 197.474 59.5932 199.468 59.5932Z" fill="#A7F6AD"/>
<path fill-rule="evenodd" clip-rule="evenodd" d="M213.753 23.603V56.6648C213.753 58.5051 215.245 59.997 217.086 59.997C218.926 59.997 220.418 58.5051 220.418 56.6648V33.6023L238.599 58.6262C239.302 59.5948 240.43 60.0729 241.543 59.991C241.609 59.995 241.676 59.997 241.744 59.997C243.584 59.997 245.076 58.5051 245.076 56.6648V23.3431C245.076 21.5027 243.584 20.0109 241.744 20.0109C239.904 20.0109 238.412 21.5027 238.412 23.3431V47.0306L219.857 21.4924C219.752 21.3351 219.633 21.1872 219.504 21.0504C218.372 19.8425 216.491 19.6383 215.116 20.6366C214.141 21.3451 213.663 22.4835 213.753 23.603Z" fill="#C0C8C4"/>
</svg>
