<svg width="89" height="20" viewBox="0 0 89 20" fill="none" xmlns="http://www.w3.org/2000/svg">
<path d="M8.98006 18.75C8.11576 18.75 7.2722 18.5766 6.47284 18.235C4.92257 17.5723 3.72622 16.3524 3.10419 14.8001L3.10394 14.7995C2.48179 13.2466 2.50889 11.5472 3.18024 10.0145C3.55788 9.15225 4.1352 8.37562 4.85264 7.764C4.81305 6.8285 4.99088 5.88088 5.36852 5.0185C6.37131 2.72925 8.65013 1.25 11.1742 1.25C12.0379 1.25 12.8809 1.42313 13.6798 1.76437C13.6803 1.76462 13.6814 1.765 13.6814 1.765C15.2317 2.42775 16.4279 3.64762 17.0501 5.19987C17.6725 6.753 17.6455 8.4525 16.974 9.9855C16.5964 10.8478 16.0189 11.6244 15.3016 12.236C15.3413 13.1715 15.1635 14.1191 14.7857 14.9815C13.7828 17.2707 11.504 18.75 8.98006 18.75ZM5.24739 9.685C5.01761 9.98262 4.82454 10.3088 4.67181 10.6576C4.17829 11.7845 4.15618 13.0367 4.60987 14.1836C5.06968 15.3461 5.95983 16.2586 7.11647 16.7531C7.71115 17.0074 8.3383 17.1362 8.98056 17.1362C10.8564 17.1362 12.5495 16.0382 13.2942 14.3389L13.2944 14.3384C13.4462 13.992 13.5542 13.6322 13.6167 13.2656C12.8432 13.5856 12.0024 13.7538 11.168 13.7538C10.3039 13.7538 9.4606 13.5805 8.66149 13.2389C7.73363 12.8421 6.90767 12.2256 6.27315 11.456C5.84119 10.9326 5.48978 10.325 5.24739 9.685ZM6.58623 8.50987C6.91254 9.95725 7.92195 11.166 9.30475 11.7572C9.8993 12.0115 10.5265 12.1404 11.1685 12.1404C12.0142 12.1404 12.8414 11.9159 13.568 11.4904C13.2416 10.043 12.2322 8.83425 10.8495 8.243C10.255 7.98875 9.62794 7.85987 8.9858 7.85987C8.14011 7.85975 7.31291 8.08425 6.58623 8.50987ZM8.98655 6.24613C9.8506 6.24613 10.6939 6.41938 11.4932 6.761C12.421 7.15762 13.2468 7.77413 13.8815 8.54388C14.3131 9.06738 14.6645 9.67488 14.907 10.315C15.1368 10.0173 15.3298 9.69113 15.4826 9.34238C15.9801 8.20638 16.0002 6.94687 15.539 5.79612C15.0775 4.64437 14.1893 3.73912 13.038 3.24687C12.4434 2.99262 11.8162 2.86375 11.174 2.86375C9.29788 2.86375 7.60463 3.962 6.86022 5.66162C6.70849 6.008 6.60046 6.36762 6.5379 6.73437C7.31141 6.41437 8.1521 6.24613 8.98655 6.24613Z" fill="#F3F7F4"/>
<path d="M25.3343 2H25.4369C25.9096 2 26.3015 2.23326 26.6127 2.69987C26.7184 2.91142 26.7713 3.11361 26.7713 3.30624V16.6493C26.7713 17.2093 26.4821 17.623 25.9035 17.8903C25.7728 17.9341 25.6826 17.9556 25.6329 17.9556H25.1384C24.9145 17.9556 24.6469 17.8127 24.3359 17.5263C24.1119 17.2652 24 16.9604 24 16.6119V3.35303C24 2.76836 24.2986 2.34217 24.8957 2.07467C25.0575 2.02499 25.2037 2 25.3343 2Z" fill="#F3F7F4"/>
<path d="M33.2589 4.77178H33.3266C33.5449 4.77178 33.7634 4.71069 33.982 4.58861C34.4253 4.29324 34.647 3.91385 34.647 3.45135V3.40302C34.647 3.1781 34.5858 2.95976 34.4639 2.74769C34.1682 2.29785 33.7762 2.07303 33.2878 2.07303C33.1145 2.07303 32.9218 2.11808 32.7096 2.20796C32.1957 2.50354 31.9385 2.90854 31.9385 3.42235C31.9385 3.57024 31.9739 3.74693 32.0446 3.95262C32.3338 4.49873 32.7386 4.77178 33.2589 4.77178Z" fill="#F3F7F4"/>
<path d="M43.6141 4.38878C43.9375 4.05279 44.0994 3.71072 44.0994 3.36239V3.30634C44.0994 3.10106 44.0463 2.90206 43.9407 2.70912C43.6545 2.23644 43.2625 2 42.765 2C42.6468 2 42.4881 2.02788 42.2891 2.08393C42.0341 2.17114 41.7231 2.46651 41.356 2.97035C38.1587 7.06975 34.843 11.3215 31.4094 15.7255C31.1605 15.9995 31.0361 16.3134 31.0361 16.668C31.0361 16.6686 31.0361 16.6692 31.0361 16.6698C31.0361 16.6704 31.0361 16.671 31.0361 16.6715C31.0361 16.6789 31.0372 16.6862 31.0372 16.6936C31.0379 16.7231 31.0389 16.7526 31.0417 16.7817C31.0821 17.2639 31.3842 17.6709 31.8058 17.8614C31.9002 17.9098 31.9904 17.9397 32.0764 17.9499C32.1622 17.9678 32.2509 17.9773 32.342 17.9773C32.4208 17.9773 32.4979 17.969 32.5728 17.9556H32.5943C32.8121 17.9556 33.0671 17.819 33.3595 17.5452C35.941 14.2422 37.3405 12.4443 37.5585 12.1519L39.1353 14.158C40.8273 16.3353 41.7323 17.4862 41.8506 17.6105C41.8794 17.6348 41.9074 17.6569 41.9352 17.6786C41.9908 17.7252 42.0505 17.7665 42.1132 17.8036C42.2486 17.8879 42.3707 17.9376 42.4792 17.951C42.5765 17.974 42.6776 17.9876 42.7821 17.9876C43.3069 17.9876 43.7587 17.6796 43.9705 17.2355C44.0162 17.1446 44.049 17.0481 44.0697 16.9466C44.0713 16.9392 44.0728 16.9317 44.0742 16.9245C44.0806 16.8903 44.0864 16.856 44.09 16.8204C44.0944 16.782 44.0965 16.7428 44.0975 16.7036C44.0978 16.6946 44.0994 16.6864 44.0994 16.6773V16.6213C44.0994 16.4035 44.0402 16.192 43.922 15.9867C43.8038 15.825 42.2486 13.8282 39.2566 9.9963V9.98694L43.6141 4.38878Z" fill="#F3F7F4"/>
<path d="M49.7508 17.9943C50.1334 17.9943 50.4798 17.839 50.7304 17.5882C50.9989 17.3425 51.1365 17.0306 51.1365 16.6493V3.30623C51.1365 3.1136 51.0835 2.91131 50.9778 2.69986C50.6668 2.23325 50.2749 2 49.8022 2H49.6995C49.5688 2 49.4227 2.02489 49.261 2.07467C48.6638 2.34217 48.3652 2.76836 48.3652 3.35303V16.6121C48.3652 16.9606 48.4772 17.2654 48.7011 17.5265C48.7244 17.548 48.7467 17.5669 48.7692 17.5866C48.8961 17.7139 49.0475 17.8167 49.2159 17.8873C49.2565 17.9052 49.2961 17.9198 49.3342 17.9307C49.4658 17.9718 49.6056 17.9943 49.7508 17.9943Z" fill="#F3F7F4"/>
<path d="M68.194 9.94056C68.1628 9.841 66.9624 7.43669 64.5923 2.72773C64.2751 2.24251 63.8739 2 63.3887 2H63.2767C62.8536 2 62.4774 2.20209 62.1476 2.60637C62.0916 2.68731 61.7029 3.45546 60.9813 4.91113C57.6842 11.4799 56.0358 14.7738 56.0358 14.7925C55.8596 15.1164 55.7225 15.3945 55.6196 15.6319C55.4879 15.8441 55.4094 16.0919 55.4031 16.3583C55.403 16.3648 55.4014 16.3726 55.4014 16.3788C55.4014 16.3811 55.4017 16.3836 55.4019 16.3859C55.4017 16.3883 55.4014 16.3904 55.4014 16.3927C55.4014 16.7537 55.5347 17.0829 55.7537 17.3362C55.784 17.3722 55.8153 17.4077 55.8494 17.4425C55.8663 17.4566 55.8829 17.469 55.8999 17.4827C55.9744 17.5474 56.0556 17.6052 56.1426 17.6538C56.3066 17.7529 56.4559 17.8059 56.5904 17.8133C56.6736 17.8282 56.7587 17.8372 56.8459 17.8372C56.9281 17.8372 57.0079 17.8288 57.0864 17.8155H57.1184C57.1556 17.8155 57.1992 17.8094 57.249 17.7968C57.6098 17.6789 57.8835 17.4798 58.0701 17.1998L62.8474 7.74759C62.9719 7.39926 63.1335 7.22504 63.3328 7.22504C63.4384 7.22504 63.5349 7.26864 63.6221 7.35575C64.9097 9.93737 65.5721 11.2561 65.6094 11.312C65.9391 11.7537 66.3466 11.9744 66.8319 11.9744C67.0558 11.9744 67.2828 11.9186 67.5129 11.8065C68.0543 11.4893 68.3249 11.0508 68.3249 10.491C68.3247 10.4291 68.2811 10.2453 68.194 9.94056Z" fill="#F3F7F4"/>
<path d="M69.8176 17.8373C70.6154 17.8373 71.2622 17.1905 71.2622 16.3927C71.2622 15.5949 70.6154 14.9482 69.8176 14.9482C69.0198 14.9482 68.373 15.5949 68.373 16.3927C68.373 17.1905 69.0198 17.8373 69.8176 17.8373Z" fill="#F3F7F4"/>
<path fill-rule="evenodd" clip-rule="evenodd" d="M75.5318 3.44293V16.6659C75.5318 17.4021 76.1285 17.9988 76.8647 17.9988C77.6008 17.9988 78.1975 17.4021 78.1975 16.6659V7.4411L85.4698 17.4505C85.7513 17.8379 86.2024 18.0292 86.6473 17.9964C86.674 17.998 86.7008 17.9988 86.7279 17.9988C87.464 17.9988 88.0608 17.4021 88.0608 16.6659V3.33723C88.0608 2.6011 87.464 2.00436 86.7279 2.00436C85.9918 2.00436 85.395 2.6011 85.395 3.33723V12.8124L77.9748 2.59928C77.9292 2.5309 77.8775 2.46696 77.8205 2.40826C77.3665 1.93568 76.622 1.85861 76.0769 2.25465C75.6863 2.53841 75.4951 2.99456 75.5318 3.44293Z" fill="#F3F7F4"/>
</svg>
